<svg xmlns="http://www.w3.org/2000/svg" xmlns:xlink="http://www.w3.org/1999/xlink" viewBox="0 0 809.14 375.18"><defs><style>.cls-1,.cls-5{fill:#fff;}.cls-2{fill:#675092;}.cls-3{fill:none;stroke:#fff;stroke-miterlimit:10;stroke-width:59.05px;}.cls-4{clip-path:url(#clip-path);}.cls-5{opacity:0.3;}</style><clipPath id="clip-path"><path class="cls-1" d="M353.27,268.85c-4.28-7.08-16.46-12.51-27.81-12.51-13.67,0-26.18,4-26.18,15.47,0,10.86,13,12.84,26.83,14.48,24,3,49.71,7.25,49.71,36.22,0,22.22-18.6,34.72-39,36.21v16.46h-20.9V359.54c-18.43-1.65-35.55-10-43.29-28.15L292,323.16c4.45,10.54,19.1,17.29,32.76,17.29,14.81,0,28.47-5.11,28.47-17.94,0-10.87-13.66-14.82-29-16.63-23.53-2.63-46.58-6.75-46.58-34.07,0-21.56,19.1-31.44,38.19-33.74V223.75h20.9v14.32c14,2.14,26.83,7.41,34.24,22.55Z"/></clipPath></defs><g id="Layer_2" data-name="Layer 2"><g id="Layer_1-2" data-name="Layer 1"><path class="cls-2" d="M458.28,96.21h24v32.42H513.1V96.21h24v86.63h-24V149.92H482.29v32.92h-24Z"/><path class="cls-2" d="M582.41,95.59h23.14l36.88,87.25H616.69l-6.31-15.47H577l-6.19,15.47H545.53Zm21,53.09-9.66-24.62L584,148.68Z"/><path class="cls-2" d="M643.05,170l13.37-16c8.54,6.8,18.07,10.39,28.09,10.39,6.44,0,9.9-2.23,9.9-5.94v-.25c0-3.59-2.84-5.57-14.6-8.29-18.44-4.21-32.67-9.4-32.67-27.23v-.24c0-16.09,12.74-27.73,33.53-27.73,14.73,0,26.24,4,35.65,11.51l-12,17c-7.92-5.57-16.58-8.54-24.25-8.54-5.82,0-8.67,2.48-8.67,5.57v.25c0,4,3,5.69,15,8.41,19.92,4.33,32.3,10.77,32.3,27v.25c0,17.7-14,28.22-35,28.22C668.3,184.33,653.69,179.5,643.05,170Z"/><path class="cls-2" d="M730.3,96.21h24v32.42h30.82V96.21h24v86.63h-24V149.92H754.31v32.92h-24Z"/><path class="cls-2" d="M457,235.65v-.25c0-25.24,19.43-45.05,45.67-45.05,17.69,0,29.08,7.43,36.75,18.07l-18.07,14c-5-6.19-10.64-10.15-18.93-10.15-12.13,0-20.67,10.27-20.67,22.9v.24c0,13,8.54,23.15,20.67,23.15,9,0,14.35-4.21,19.55-10.52L540,260.9c-8.17,11.26-19.18,19.55-38.36,19.55C476.9,280.45,457,261.52,457,235.65Z"/><path class="cls-2" d="M580.12,191.47h23.14l36.88,87.25H614.4l-6.31-15.47H574.67l-6.18,15.47H543.24Zm21,53.09-9.65-24.63-9.78,24.63Z"/><path class="cls-2" d="M641.38,265.85l13.37-16c8.54,6.81,18.07,10.4,28.09,10.4,6.44,0,9.9-2.23,9.9-5.94v-.25c0-3.59-2.84-5.57-14.6-8.29-18.44-4.21-32.67-9.41-32.67-27.23v-.25c0-16.09,12.74-27.72,33.53-27.72,14.73,0,26.24,4,35.65,11.51l-12,17c-7.92-5.57-16.58-8.54-24.25-8.54-5.82,0-8.67,2.47-8.67,5.57v.24c0,4,3,5.7,15,8.42,19.92,4.33,32.3,10.77,32.3,27V252c0,17.69-14,28.21-35,28.21C666.63,280.2,652,275.38,641.38,265.85Z"/><path class="cls-2" d="M729.25,192.09h24v32.42h30.82V192.09h24v86.63h-24V245.8H753.26v32.92h-24Z"/><path class="cls-3" d="M375.66,145.16c-127,0-230,103-230,230"/><path class="cls-3" d="M0,230C127,230,230,127,230,0"/><path class="cls-1" d="M353.27,268.85c-4.28-7.08-16.46-12.51-27.81-12.51-13.67,0-26.18,4-26.18,15.47,0,10.86,13,12.84,26.83,14.48,24,3,49.71,7.25,49.71,36.22,0,22.22-18.6,34.72-39,36.21v16.46h-20.9V359.54c-18.43-1.65-35.55-10-43.29-28.15L292,323.16c4.45,10.54,19.1,17.29,32.76,17.29,14.81,0,28.47-5.11,28.47-17.94,0-10.87-13.66-14.82-29-16.63-23.53-2.63-46.58-6.75-46.58-34.07,0-21.56,19.1-31.44,38.19-33.74V223.75h20.9v14.32c14,2.14,26.83,7.41,34.24,22.55Z"/><g class="cls-4"><path class="cls-5" d="M247.41,241.77c0,20.49,35.34,37.1,78.94,37.1s78.94-16.61,78.94-37.1S370,204.69,326.35,204.69,247.41,221.29,247.41,241.77Z"/><path class="cls-5" d="M244.94,292c0,20.49,35.34,37.09,78.93,37.09s78.94-16.6,78.94-37.09-35.34-37.08-78.94-37.08S244.94,271.52,244.94,292Z"/></g></g></g></svg>