<svg xmlns="http://www.w3.org/2000/svg" xmlns:xlink="http://www.w3.org/1999/xlink" viewBox="0 0 405.29 629.35"><defs><style>.cls-1,.cls-5{fill:#fff;}.cls-2{fill:#675092;}.cls-3{fill:none;stroke:#fff;stroke-miterlimit:10;stroke-width:59.05px;}.cls-4{clip-path:url(#clip-path);}.cls-5{opacity:0.3;}</style><clipPath id="clip-path"><path class="cls-1" d="M353.27,268.85c-4.28-7.08-16.46-12.51-27.81-12.51-13.67,0-26.18,4-26.18,15.47,0,10.86,13,12.84,26.83,14.48,24,3,49.71,7.25,49.71,36.22,0,22.22-18.6,34.72-39,36.21v16.46h-20.9V359.54c-18.43-1.65-35.55-10-43.29-28.15L292,323.16c4.45,10.54,19.1,17.29,32.76,17.29,14.81,0,28.47-5.11,28.47-17.94,0-10.87-13.66-14.82-29-16.63-23.53-2.63-46.58-6.75-46.58-34.07,0-21.56,19.1-31.44,38.19-33.74V223.75h20.9v14.32c14,2.14,26.83,7.41,34.24,22.55Z"/></clipPath></defs><g id="Layer_2" data-name="Layer 2"><g id="Layer_1-2" data-name="Layer 1"><path class="cls-2" d="M13.13,445.11h24v32.42H68V445.11H92v86.63H68V498.82H37.14v32.92h-24Z"/><path class="cls-2" d="M137.26,444.49H160.4l36.88,87.25H171.54l-6.31-15.47H131.82l-6.19,15.47H100.38Zm21,53.09L148.65,473l-9.78,24.62Z"/><path class="cls-2" d="M197.91,518.87l13.36-16c8.54,6.8,18.07,10.39,28.09,10.39,6.44,0,9.91-2.23,9.91-5.94v-.25c0-3.59-2.85-5.57-14.61-8.29-18.44-4.21-32.67-9.4-32.67-27.23v-.24c0-16.09,12.75-27.73,33.54-27.73,14.73,0,26.23,4,35.64,11.51l-12,17c-7.92-5.57-16.59-8.54-24.26-8.54-5.82,0-8.66,2.47-8.66,5.57v.25c0,4,3,5.69,15,8.41,19.93,4.33,32.3,10.77,32.3,27V505c0,17.7-14,28.22-35,28.22C223.15,533.23,208.55,528.4,197.91,518.87Z"/><path class="cls-2" d="M285.16,445.11h24v32.42H340V445.11h24v86.63H340V498.82H309.16v32.92h-24Z"/><path class="cls-2" d="M11.83,584.55v-.25c0-25.24,19.43-45,45.67-45,17.7,0,29.08,7.43,36.76,18.07l-18.07,14c-5-6.19-10.65-10.15-18.94-10.15-12.13,0-20.67,10.27-20.67,22.89v.25c0,13,8.54,23.14,20.67,23.14,9,0,14.36-4.2,19.56-10.51L94.87,609.8c-8.16,11.26-19.18,19.55-38.36,19.55C31.76,629.35,11.83,610.41,11.83,584.55Z"/><path class="cls-2" d="M135,540.37h23.15L195,627.62H169.25l-6.31-15.47H129.53l-6.19,15.47H98.09Zm21,53.09-9.65-24.63-9.78,24.63Z"/><path class="cls-2" d="M196.24,614.75l13.36-16c8.54,6.81,18.07,10.4,28.09,10.4,6.44,0,9.91-2.23,9.91-5.94V603c0-3.59-2.85-5.57-14.61-8.29-18.44-4.21-32.67-9.41-32.67-27.23v-.25c0-16.09,12.75-27.72,33.54-27.72,14.73,0,26.23,4,35.64,11.51l-12,17c-7.92-5.57-16.59-8.54-24.26-8.54-5.82,0-8.66,2.47-8.66,5.57v.24c0,4,3,5.7,15,8.42,19.93,4.33,32.3,10.77,32.3,27v.25c0,17.69-14,28.21-35,28.21C221.48,629.1,206.88,624.28,196.24,614.75Z"/><path class="cls-2" d="M284.1,541h24v32.42h30.82V541h24v86.63h-24V594.7H308.11v32.92h-24Z"/><path class="cls-3" d="M375.66,145.16c-127,0-230,103-230,230"/><path class="cls-3" d="M0,230C127,230,230,127,230,0"/><path class="cls-1" d="M353.27,268.85c-4.28-7.08-16.46-12.51-27.81-12.51-13.67,0-26.18,4-26.18,15.47,0,10.86,13,12.84,26.83,14.48,24,3,49.71,7.25,49.71,36.22,0,22.22-18.6,34.72-39,36.21v16.46h-20.9V359.54c-18.43-1.65-35.55-10-43.29-28.15L292,323.16c4.45,10.54,19.1,17.29,32.76,17.29,14.81,0,28.47-5.11,28.47-17.94,0-10.87-13.66-14.82-29-16.63-23.53-2.63-46.58-6.75-46.58-34.07,0-21.56,19.1-31.44,38.19-33.74V223.75h20.9v14.32c14,2.14,26.83,7.41,34.24,22.55Z"/><g class="cls-4"><path class="cls-5" d="M247.41,241.77c0,20.49,35.34,37.1,78.94,37.1s78.94-16.61,78.94-37.1S370,204.69,326.35,204.69,247.41,221.29,247.41,241.77Z"/><path class="cls-5" d="M244.94,292c0,20.49,35.34,37.09,78.93,37.09s78.94-16.6,78.94-37.09-35.34-37.08-78.94-37.08S244.94,271.52,244.94,292Z"/></g></g></g></svg>