<svg xmlns="http://www.w3.org/2000/svg" xmlns:xlink="http://www.w3.org/1999/xlink" viewBox="0 0 673.81 623.75"><defs><style>.cls-1,.cls-4{fill:#231f20;}.cls-2{fill:none;stroke:#000;stroke-miterlimit:10;stroke-width:98.18px;}.cls-3{clip-path:url(#clip-path);}.cls-4{opacity:0.3;}</style><clipPath id="clip-path"><path class="cls-1" d="M587.34,447c-7.12-11.77-27.37-20.8-46.25-20.8-22.71,0-43.51,6.57-43.51,25.72,0,18.06,21.62,21.34,44.6,24.08,40,4.93,82.65,12,82.65,60.2,0,37-30.93,57.74-64.86,60.21v27.36H525.22v-26c-30.65-2.73-59.11-16.69-72-46.79l32.29-13.68C492.93,554.79,517.28,566,540,566c24.63,0,47.35-8.48,47.35-29.83,0-18.06-22.72-24.62-48.17-27.63-39.13-4.38-77.44-11.22-77.44-56.65,0-35.85,31.74-52.27,63.49-56.1V372H560V395.8c23.26,3.56,44.6,12.32,56.92,37.49Z"/></clipPath></defs><g id="Layer_2" data-name="Layer 2"><g id="Layer_1-2" data-name="Layer 1"><path class="cls-2" d="M624.56,241.34c-211.2,0-382.41,171.21-382.41,382.41"/><path class="cls-2" d="M0,382.41C211.2,382.41,382.41,211.2,382.41,0"/><path class="cls-1" d="M587.34,447c-7.12-11.77-27.37-20.8-46.25-20.8-22.71,0-43.51,6.57-43.51,25.72,0,18.06,21.62,21.34,44.6,24.08,40,4.93,82.65,12,82.65,60.2,0,37-30.93,57.74-64.86,60.21v27.36H525.22v-26c-30.65-2.73-59.11-16.69-72-46.79l32.29-13.68C492.93,554.79,517.28,566,540,566c24.63,0,47.35-8.48,47.35-29.83,0-18.06-22.72-24.62-48.17-27.63-39.13-4.38-77.44-11.22-77.44-56.65,0-35.85,31.74-52.27,63.49-56.1V372H560V395.8c23.26,3.56,44.6,12.32,56.92,37.49Z"/><g class="cls-3"><path class="cls-4" d="M411.33,402c0,34.06,58.76,61.67,131.24,61.67S673.81,436,673.81,402s-58.75-61.65-131.24-61.65S411.33,367.91,411.33,402Z"/><path class="cls-4" d="M407.22,485.47c0,34.06,58.76,61.67,131.24,61.67S669.7,519.53,669.7,485.47,611,423.81,538.46,423.81,407.22,451.42,407.22,485.47Z"/></g></g></g></svg>