<svg xmlns="http://www.w3.org/2000/svg" xmlns:xlink="http://www.w3.org/1999/xlink" viewBox="0 0 352.16 185.73"><defs><style>.cls-1{fill:url(#linear-gradient);}.cls-2{fill:url(#linear-gradient-2);}.cls-3{fill:url(#linear-gradient-3);}.cls-4{fill:url(#linear-gradient-4);}.cls-5{fill:url(#linear-gradient-5);}.cls-6{fill:url(#linear-gradient-6);}.cls-7{fill:url(#linear-gradient-7);}.cls-8{fill:url(#linear-gradient-8);}</style><linearGradient id="linear-gradient" x1="40.72" y1="88.12" x2="40.72" y2="1.49" gradientUnits="userSpaceOnUse"><stop offset="0" stop-color="#495197"/><stop offset="0.44" stop-color="#963883"/><stop offset="0.82" stop-color="#d42473"/><stop offset="1" stop-color="#ec1c6d"/></linearGradient><linearGradient id="linear-gradient-2" x1="137" y1="88.12" x2="137" y2="0.87" xlink:href="#linear-gradient"/><linearGradient id="linear-gradient-3" x1="223.88" y1="89.6" x2="223.88" y2="0" xlink:href="#linear-gradient"/><linearGradient id="linear-gradient-4" x1="312.74" y1="88.12" x2="312.74" y2="1.49" xlink:href="#linear-gradient"/><linearGradient id="linear-gradient-5" x1="41.52" y1="185.73" x2="41.52" y2="95.63" xlink:href="#linear-gradient"/><linearGradient id="linear-gradient-6" x1="134.71" y1="183.99" x2="134.71" y2="96.74" xlink:href="#linear-gradient"/><linearGradient id="linear-gradient-7" x1="222.21" y1="185.48" x2="222.21" y2="95.88" xlink:href="#linear-gradient"/><linearGradient id="linear-gradient-8" x1="311.69" y1="183.99" x2="311.69" y2="97.36" xlink:href="#linear-gradient"/></defs><g id="Layer_2" data-name="Layer 2"><g id="Layer_1-2" data-name="Layer 1"><path class="cls-1" d="M1.3,1.49h24V33.91H56.13V1.49h24V88.12h-24V55.2H25.31V88.12H1.3Z"/><path class="cls-2" d="M125.43.87h23.14l36.88,87.25H159.71L153.4,72.65H120L113.8,88.12H88.55Zm21,53.09-9.65-24.63L127,54Z"/><path class="cls-3" d="M186.07,75.25l13.37-16c8.54,6.81,18.07,10.4,28.09,10.4,6.44,0,9.9-2.23,9.9-5.94v-.25c0-3.59-2.84-5.57-14.6-8.29C204.39,51,190.16,45.79,190.16,28v-.25C190.16,11.63,202.9,0,223.7,0c14.72,0,26.23,4,35.64,11.51l-12,17c-7.92-5.56-16.58-8.53-24.25-8.53-5.82,0-8.67,2.47-8.67,5.56v.25c0,4,3,5.69,15,8.42,19.92,4.33,32.3,10.76,32.3,27v.24c0,17.7-14,28.22-35,28.22C211.32,89.6,196.72,84.77,186.07,75.25Z"/><path class="cls-4" d="M273.32,1.49h24V33.91h30.82V1.49h24V88.12h-24V55.2H297.33V88.12h-24Z"/><path class="cls-5" d="M0,140.92v-.24c0-25.25,19.43-45.05,45.67-45.05,17.69,0,29.08,7.42,36.75,18.07l-18.07,14c-4.95-6.19-10.64-10.15-18.93-10.15-12.13,0-20.67,10.28-20.67,22.9v.25c0,13,8.54,23.14,20.67,23.14,9,0,14.36-4.21,19.55-10.52L83,166.17c-8.17,11.26-19.18,19.56-38.36,19.56C19.93,185.73,0,166.79,0,140.92Z"/><path class="cls-6" d="M123.14,96.74h23.14L183.16,184H157.42l-6.31-15.47H117.7L111.51,184H86.26Zm21,53.1-9.65-24.63-9.78,24.63Z"/><path class="cls-7" d="M184.4,171.12l13.37-16c8.54,6.8,18.07,10.39,28.09,10.39,6.44,0,9.9-2.22,9.9-5.94v-.25c0-3.58-2.84-5.56-14.6-8.29-18.44-4.2-32.67-9.4-32.67-27.22v-.25c0-16.09,12.75-27.72,33.54-27.72,14.72,0,26.23,4,35.64,11.51l-12,17c-7.92-5.57-16.58-8.54-24.25-8.54-5.82,0-8.67,2.48-8.67,5.57v.25c0,4,3,5.69,15,8.41,19.92,4.34,32.3,10.77,32.3,27v.25c0,17.7-14,28.22-35,28.22C209.65,185.48,195.05,180.65,184.4,171.12Z"/><path class="cls-8" d="M272.27,97.36h24v32.43H327.1V97.36h24V184h-24V151.07H296.28V184h-24Z"/></g></g></svg>