<svg xmlns="http://www.w3.org/2000/svg" xmlns:xlink="http://www.w3.org/1999/xlink" viewBox="0 0 58 58"><defs><style>.cls-1,.cls-5{fill:#fff;}.cls-2{fill:url(#linear-gradient);}.cls-3{fill:none;stroke:#fff;stroke-miterlimit:10;stroke-width:6.36px;}.cls-4{clip-path:url(#clip-path);}.cls-5{opacity:0.3;}</style><linearGradient id="linear-gradient" x1="29" y1="58" x2="29" gradientUnits="userSpaceOnUse"><stop offset="0" stop-color="#495197"/><stop offset="0.44" stop-color="#963883"/><stop offset="0.82" stop-color="#d42473"/><stop offset="1" stop-color="#ec1c6d"/></linearGradient><clipPath id="clip-path"><path class="cls-1" d="M46.81,37.75a3.73,3.73,0,0,0-3-1.34c-1.48,0-2.82.42-2.82,1.66s1.4,1.39,2.89,1.56c2.59.32,5.35.78,5.35,3.9,0,2.4-2,3.74-4.2,3.9v1.78H42.79V47.52a5.25,5.25,0,0,1-4.66-3l2.09-.89a3.87,3.87,0,0,0,3.53,1.87c1.59,0,3.06-.55,3.06-1.94,0-1.17-1.47-1.59-3.12-1.79-2.53-.28-5-.72-5-3.67,0-2.32,2.06-3.38,4.12-3.63V32.9H45v1.54a4.46,4.46,0,0,1,3.69,2.43Z"/></clipPath></defs><g id="Layer_2" data-name="Layer 2"><g id="Layer_1-2" data-name="Layer 1"><rect class="cls-2" width="58" height="58" rx="14.56"/><path class="cls-3" d="M49.23,24.43A24.77,24.77,0,0,0,24.45,49.21"/><path class="cls-3" d="M8.76,33.57A24.78,24.78,0,0,0,33.54,8.79"/><path class="cls-1" d="M46.81,37.75a3.73,3.73,0,0,0-3-1.34c-1.48,0-2.82.42-2.82,1.66s1.4,1.39,2.89,1.56c2.59.32,5.35.78,5.35,3.9,0,2.4-2,3.74-4.2,3.9v1.78H42.79V47.52a5.25,5.25,0,0,1-4.66-3l2.09-.89a3.87,3.87,0,0,0,3.53,1.87c1.59,0,3.06-.55,3.06-1.94,0-1.17-1.47-1.59-3.12-1.79-2.53-.28-5-.72-5-3.67,0-2.32,2.06-3.38,4.12-3.63V32.9H45v1.54a4.46,4.46,0,0,1,3.69,2.43Z"/><g class="cls-4"><path class="cls-5" d="M35.41,34.84c0,2.2,3.81,4,8.5,4s8.51-1.79,8.51-4-3.81-4-8.51-4S35.41,32.63,35.41,34.84Z"/><path class="cls-5" d="M35.14,40.25c0,2.2,3.81,4,8.51,4s8.5-1.79,8.5-4-3.81-4-8.5-4S35.14,38,35.14,40.25Z"/></g></g></g></svg>