<svg xmlns="http://www.w3.org/2000/svg" xmlns:xlink="http://www.w3.org/1999/xlink" viewBox="0 0 80 80"><defs><style>.cls-1,.cls-5{fill:#fff;}.cls-2{fill:url(#linear-gradient);}.cls-3{fill:none;stroke:#fff;stroke-miterlimit:10;stroke-width:8.77px;}.cls-4{clip-path:url(#clip-path);}.cls-5{opacity:0.3;}</style><linearGradient id="linear-gradient" x1="40" y1="80" x2="40" gradientUnits="userSpaceOnUse"><stop offset="0" stop-color="#495197"/><stop offset="0.44" stop-color="#963883"/><stop offset="0.82" stop-color="#d42473"/><stop offset="1" stop-color="#ec1c6d"/></linearGradient><clipPath id="clip-path"><path class="cls-1" d="M64.57,52.07a5.16,5.16,0,0,0-4.13-1.85c-2,0-3.89.58-3.89,2.29s1.93,1.91,4,2.16c3.58.44,7.39,1.07,7.39,5.38,0,3.3-2.76,5.16-5.8,5.38v2.44H59V65.55c-2.74-.25-5.28-1.49-6.43-4.18l2.88-1.23c.66,1.57,2.84,2.57,4.87,2.57,2.2,0,4.23-.76,4.23-2.66,0-1.62-2-2.2-4.3-2.47-3.5-.39-6.93-1-6.93-5.07,0-3.2,2.84-4.67,5.68-5V45.37h3.1V47.5a6.15,6.15,0,0,1,5.09,3.35Z"/></clipPath></defs><g id="Layer_2" data-name="Layer 2"><g id="Layer_1-2" data-name="Layer 1"><rect class="cls-2" width="80" height="80" rx="20.08"/><path class="cls-3" d="M67.9,33.7A34.17,34.17,0,0,0,33.72,67.87"/><path class="cls-3" d="M12.08,46.3A34.18,34.18,0,0,0,46.26,12.13"/><path class="cls-1" d="M64.57,52.07a5.16,5.16,0,0,0-4.13-1.85c-2,0-3.89.58-3.89,2.29s1.93,1.91,4,2.16c3.58.44,7.39,1.07,7.39,5.38,0,3.3-2.76,5.16-5.8,5.38v2.44H59V65.55c-2.74-.25-5.28-1.49-6.43-4.18l2.88-1.23c.66,1.57,2.84,2.57,4.87,2.57,2.2,0,4.23-.76,4.23-2.66,0-1.62-2-2.2-4.3-2.47-3.5-.39-6.93-1-6.93-5.07,0-3.2,2.84-4.67,5.68-5V45.37h3.1V47.5a6.15,6.15,0,0,1,5.09,3.35Z"/><g class="cls-4"><path class="cls-5" d="M48.84,48.05c0,3,5.25,5.51,11.73,5.51S72.3,51.09,72.3,48.05s-5.25-5.51-11.73-5.51S48.84,45,48.84,48.05Z"/><path class="cls-5" d="M48.47,55.51c0,3.05,5.25,5.52,11.73,5.52s11.73-2.47,11.73-5.52S66.68,50,60.2,50,48.47,52.47,48.47,55.51Z"/></g></g></g></svg>