<svg xmlns="http://www.w3.org/2000/svg" xmlns:xlink="http://www.w3.org/1999/xlink" viewBox="0 0 167 167"><defs><style>.cls-1,.cls-5{fill:#fff;}.cls-2{fill:url(#linear-gradient);}.cls-3{fill:none;stroke:#fff;stroke-miterlimit:10;stroke-width:18.32px;}.cls-4{clip-path:url(#clip-path);}.cls-5{opacity:0.3;}</style><linearGradient id="linear-gradient" x1="83.5" y1="167" x2="83.5" gradientUnits="userSpaceOnUse"><stop offset="0" stop-color="#495197"/><stop offset="0.44" stop-color="#963883"/><stop offset="0.82" stop-color="#d42473"/><stop offset="1" stop-color="#ec1c6d"/></linearGradient><clipPath id="clip-path"><path class="cls-1" d="M134.79,108.7c-1.33-2.19-5.11-3.88-8.63-3.88-4.24,0-8.12,1.23-8.12,4.8,0,3.37,4,4,8.33,4.5,7.45.91,15.41,2.24,15.41,11.23,0,6.89-5.77,10.77-12.1,11.23v5.1H123.2v-4.85c-5.72-.51-11-3.11-13.43-8.73l6-2.55c1.38,3.27,5.92,5.36,10.16,5.36,4.59,0,8.83-1.58,8.83-5.56,0-3.37-4.24-4.6-9-5.16-7.3-.82-14.44-2.09-14.44-10.57,0-6.68,5.92-9.75,11.84-10.46V94.72h6.48v4.44c4.34.66,8.33,2.29,10.62,7Z"/></clipPath></defs><g id="Layer_2" data-name="Layer 2"><g id="Layer_1-2" data-name="Layer 1"><rect class="cls-2" width="167" height="167" rx="41.92"/><path class="cls-3" d="M141.73,70.34a71.34,71.34,0,0,0-71.34,71.34"/><path class="cls-3" d="M25.22,96.66A71.34,71.34,0,0,0,96.56,25.32"/><path class="cls-1" d="M134.79,108.7c-1.33-2.19-5.11-3.88-8.63-3.88-4.24,0-8.12,1.23-8.12,4.8,0,3.37,4,4,8.33,4.5,7.45.91,15.41,2.24,15.41,11.23,0,6.89-5.77,10.77-12.1,11.23v5.1H123.2v-4.85c-5.72-.51-11-3.11-13.43-8.73l6-2.55c1.38,3.27,5.92,5.36,10.16,5.36,4.59,0,8.83-1.58,8.83-5.56,0-3.37-4.24-4.6-9-5.16-7.3-.82-14.44-2.09-14.44-10.57,0-6.68,5.92-9.75,11.84-10.46V94.72h6.48v4.44c4.34.66,8.33,2.29,10.62,7Z"/><g class="cls-4"><path class="cls-5" d="M102,100.31c0,6.35,11,11.5,24.49,11.5s24.48-5.15,24.48-11.5S140,88.8,126.44,88.8,102,94,102,100.31Z"/><path class="cls-5" d="M101.19,115.89c0,6.35,11,11.5,24.48,11.5s24.49-5.15,24.49-11.5-11-11.51-24.49-11.51S101.19,109.53,101.19,115.89Z"/></g></g></g></svg>