<svg xmlns="http://www.w3.org/2000/svg" xmlns:xlink="http://www.w3.org/1999/xlink" viewBox="0 0 1000 1000"><defs><style>.cls-1,.cls-5{fill:#fff;}.cls-2{fill:url(#linear-gradient);}.cls-3{fill:none;stroke:#fff;stroke-miterlimit:10;stroke-width:98.18px;}.cls-4{clip-path:url(#clip-path);}.cls-5{opacity:0.3;}</style><linearGradient id="linear-gradient" x1="500" y1="1000" x2="500" gradientUnits="userSpaceOnUse"><stop offset="0" stop-color="#495197"/><stop offset="0.44" stop-color="#963883"/><stop offset="0.82" stop-color="#d42473"/><stop offset="1" stop-color="#ec1c6d"/></linearGradient><clipPath id="clip-path"><path class="cls-1" d="M774.92,635.1c-7.11-11.77-27.36-20.8-46.24-20.8-22.72,0-43.51,6.57-43.51,25.72,0,18.07,21.61,21.35,44.6,24.09,40,4.92,82.64,12,82.64,60.2,0,36.94-30.92,57.74-64.85,60.2v27.37H712.8v-26c-30.64-2.74-59.1-16.69-72-46.8l32.28-13.68c7.4,17.52,31.75,28.74,54.46,28.74,24.63,0,47.34-8.49,47.34-29.83,0-18.06-22.71-24.63-48.16-27.64-39.13-4.38-77.44-11.22-77.44-56.65,0-35.84,31.74-52.26,63.48-56.09V560.12h34.76v23.81c23.26,3.55,44.6,12.31,56.92,37.49Z"/></clipPath></defs><g id="Layer_2" data-name="Layer 2"><g id="Layer_1-2" data-name="Layer 1"><rect class="cls-2" width="1000" height="1000"/><path class="cls-3" d="M812.15,429.46c-211.2,0-382.41,171.21-382.41,382.42"/><path class="cls-3" d="M187.59,570.54C398.79,570.54,570,399.33,570,188.12"/><path class="cls-1" d="M774.92,635.1c-7.11-11.77-27.36-20.8-46.24-20.8-22.72,0-43.51,6.57-43.51,25.72,0,18.07,21.61,21.35,44.6,24.09,40,4.92,82.64,12,82.64,60.2,0,36.94-30.92,57.74-64.85,60.2v27.37H712.8v-26c-30.64-2.74-59.1-16.69-72-46.8l32.28-13.68c7.4,17.52,31.75,28.74,54.46,28.74,24.63,0,47.34-8.49,47.34-29.83,0-18.06-22.71-24.63-48.16-27.64-39.13-4.38-77.44-11.22-77.44-56.65,0-35.84,31.74-52.26,63.48-56.09V560.12h34.76v23.81c23.26,3.55,44.6,12.31,56.92,37.49Z"/><g class="cls-4"><path class="cls-5" d="M598.92,590.09c0,34.06,58.76,61.67,131.24,61.67S861.4,624.15,861.4,590.09s-58.75-61.66-131.24-61.66S598.92,556,598.92,590.09Z"/><path class="cls-5" d="M594.81,673.59c0,34.06,58.76,61.67,131.24,61.67s131.24-27.61,131.24-61.67-58.76-61.65-131.24-61.65S594.81,639.54,594.81,673.59Z"/></g></g></g></svg>