<svg xmlns="http://www.w3.org/2000/svg" xmlns:xlink="http://www.w3.org/1999/xlink" viewBox="0 0 405.29 629.12"><defs><style>.cls-1,.cls-4{fill:#fff;}.cls-2{fill:none;stroke:#fff;stroke-miterlimit:10;stroke-width:59.05px;}.cls-3{clip-path:url(#clip-path);}.cls-4{opacity:0.3;}</style><clipPath id="clip-path"><path class="cls-1" d="M353.27,268.85c-4.28-7.08-16.46-12.51-27.81-12.51-13.67,0-26.18,4-26.18,15.47,0,10.86,13,12.84,26.83,14.48,24,3,49.71,7.25,49.71,36.22,0,22.22-18.6,34.72-39,36.21v16.46h-20.9V359.54c-18.43-1.65-35.55-10-43.29-28.15L292,323.16c4.45,10.54,19.1,17.29,32.76,17.29,14.81,0,28.47-5.11,28.47-17.94,0-10.87-13.66-14.82-29-16.63-23.53-2.63-46.58-6.75-46.58-34.07,0-21.56,19.1-31.44,38.19-33.74V223.75h20.9v14.32c14,2.14,26.83,7.41,34.24,22.55Z"/></clipPath></defs><g id="Layer_2" data-name="Layer 2"><g id="Layer_1-2" data-name="Layer 1"><path class="cls-1" d="M13.13,445.11h24v32.42H68V445.11H92v86.63H68V498.82H37.14v32.92h-24Z"/><path class="cls-1" d="M137.26,444.49H160.4l36.88,87.25H171.54l-6.31-15.47H131.82l-6.19,15.47H100.38Zm21,53.09L148.65,473l-9.78,24.62Z"/><path class="cls-1" d="M197.91,518.87l13.36-16c27.28,22.23,57,2.85,23.39-4.09-18.44-4.21-32.67-9.4-32.67-27.23-.13-16.22,12.64-28,33.54-28,14.73,0,26.23,4,35.64,11.51l-12,17c-27.07-19.5-49.27.05-18,5.69,45.85,4.87,41.34,56.05-2.72,55.45C223.15,533.23,208.55,528.4,197.91,518.87Z"/><path class="cls-1" d="M285.16,445.11h24v32.42H340V445.11h24v86.63H340V498.82H309.16v32.92h-24Z"/><path class="cls-1" d="M11.83,584.55c-2.41-43.47,60-61.52,82.43-27.23l-18.07,14c-12.43-18.22-40.41-10.15-39.61,13-.61,24,28,30.9,40.23,12.63L94.87,609.8C73.51,644.57,10.29,630.16,11.83,584.55Z"/><path class="cls-1" d="M135,540.37h23.15L195,627.62H169.25l-6.31-15.47H129.53l-6.19,15.47H98.09Zm21,53.09-9.65-24.63-9.78,24.63Z"/><path class="cls-1" d="M196.24,614.75l13.36-16c27.28,22.23,57,2.85,23.39-4.08-18.44-4.21-32.67-9.41-32.67-27.23-.13-16.22,12.64-28,33.54-28,14.73,0,26.23,4,35.64,11.51l-12,17c-27.07-19.5-49.27,0-17.95,5.69,45.85,4.87,41.34,56.05-2.72,55.44C221.48,629.1,206.88,624.28,196.24,614.75Z"/><path class="cls-1" d="M284.1,541h24v32.42h30.82V541h24v86.63h-24V594.7H308.11v32.92h-24Z"/><path class="cls-2" d="M375.66,145.16c-127,0-230,103-230,230"/><path class="cls-2" d="M0,230C127,230,230,127,230,0"/><path class="cls-1" d="M353.27,268.85c-4.28-7.08-16.46-12.51-27.81-12.51-13.67,0-26.18,4-26.18,15.47,0,10.86,13,12.84,26.83,14.48,24,3,49.71,7.25,49.71,36.22,0,22.22-18.6,34.72-39,36.21v16.46h-20.9V359.54c-18.43-1.65-35.55-10-43.29-28.15L292,323.16c4.45,10.54,19.1,17.29,32.76,17.29,14.81,0,28.47-5.11,28.47-17.94,0-10.87-13.66-14.82-29-16.63-23.53-2.63-46.58-6.75-46.58-34.07,0-21.56,19.1-31.44,38.19-33.74V223.75h20.9v14.32c14,2.14,26.83,7.41,34.24,22.55Z"/><g class="cls-3"><path class="cls-4" d="M247.41,241.77c0,20.49,35.34,37.1,78.94,37.1s78.94-16.61,78.94-37.1S370,204.69,326.35,204.69,247.41,221.29,247.41,241.77Z"/><path class="cls-4" d="M244.94,292c0,20.49,35.34,37.09,78.93,37.09s78.94-16.6,78.94-37.09-35.34-37.08-78.94-37.08S244.94,271.52,244.94,292Z"/></g></g></g></svg>