<svg xmlns="http://www.w3.org/2000/svg" xmlns:xlink="http://www.w3.org/1999/xlink" viewBox="0 0 16 16"><defs><style>.cls-1,.cls-5{fill:#fff;}.cls-2{fill:url(#linear-gradient);}.cls-3{fill:none;stroke:#fff;stroke-miterlimit:10;stroke-width:1.75px;}.cls-4{clip-path:url(#clip-path);}.cls-5{opacity:0.3;}</style><linearGradient id="linear-gradient" x1="8" y1="16" x2="8" gradientUnits="userSpaceOnUse"><stop offset="0" stop-color="#495197"/><stop offset="0.44" stop-color="#963883"/><stop offset="0.82" stop-color="#d42473"/><stop offset="1" stop-color="#ec1c6d"/></linearGradient><clipPath id="clip-path"><path class="cls-1" d="M12.91,10.41a1,1,0,0,0-.82-.37c-.41,0-.78.12-.78.46s.39.38.8.43c.71.09,1.47.22,1.47,1.08a1.13,1.13,0,0,1-1.16,1.08v.48H11.8v-.46a1.46,1.46,0,0,1-1.28-.84l.57-.24a1.09,1.09,0,0,0,1,.51c.44,0,.84-.15.84-.53s-.4-.44-.86-.49c-.7-.08-1.38-.21-1.38-1,0-.64.57-.93,1.13-1V9.07h.62V9.5a1.22,1.22,0,0,1,1,.67Z"/></clipPath></defs><g id="Layer_2" data-name="Layer 2"><g id="Layer_1-2" data-name="Layer 1"><rect class="cls-2" width="16" height="16" rx="4.02"/><path class="cls-3" d="M13.58,6.74a6.83,6.83,0,0,0-6.84,6.83"/><path class="cls-3" d="M2.42,9.26A6.83,6.83,0,0,0,9.25,2.43"/><path class="cls-1" d="M12.91,10.41a1,1,0,0,0-.82-.37c-.41,0-.78.12-.78.46s.39.38.8.43c.71.09,1.47.22,1.47,1.08a1.13,1.13,0,0,1-1.16,1.08v.48H11.8v-.46a1.46,1.46,0,0,1-1.28-.84l.57-.24a1.09,1.09,0,0,0,1,.51c.44,0,.84-.15.84-.53s-.4-.44-.86-.49c-.7-.08-1.38-.21-1.38-1,0-.64.57-.93,1.13-1V9.07h.62V9.5a1.22,1.22,0,0,1,1,.67Z"/><g class="cls-4"><path class="cls-5" d="M9.77,9.61c0,.61,1.05,1.1,2.34,1.1s2.35-.49,2.35-1.1-1.05-1.1-2.35-1.1S9.77,9,9.77,9.61Z"/><path class="cls-5" d="M9.69,11.1c0,.61,1.05,1.11,2.35,1.11s2.35-.5,2.35-1.11S13.34,10,12,10,9.69,10.49,9.69,11.1Z"/></g></g></g></svg>