<svg xmlns="http://www.w3.org/2000/svg" xmlns:xlink="http://www.w3.org/1999/xlink" viewBox="0 0 40 40"><defs><style>.cls-1,.cls-5{fill:#fff;}.cls-2{fill:url(#linear-gradient);}.cls-3{fill:none;stroke:#fff;stroke-miterlimit:10;stroke-width:4.39px;}.cls-4{clip-path:url(#clip-path);}.cls-5{opacity:0.3;}</style><linearGradient id="linear-gradient" x1="20" y1="40" x2="20" gradientUnits="userSpaceOnUse"><stop offset="0" stop-color="#495197"/><stop offset="0.44" stop-color="#963883"/><stop offset="0.82" stop-color="#d42473"/><stop offset="1" stop-color="#ec1c6d"/></linearGradient><clipPath id="clip-path"><path class="cls-1" d="M32.28,26a2.54,2.54,0,0,0-2.06-.93c-1,0-1.95.29-1.95,1.15s1,.95,2,1.07c1.78.22,3.69.54,3.69,2.69a2.82,2.82,0,0,1-2.9,2.69v1.23H29.51V32.77a3.63,3.63,0,0,1-3.22-2.09l1.45-.61a2.67,2.67,0,0,0,2.43,1.29c1.1,0,2.11-.38,2.11-1.34,0-.8-1-1.1-2.15-1.23-1.75-.2-3.46-.5-3.46-2.53,0-1.6,1.42-2.34,2.84-2.51V22.69h1.55v1.06a3.08,3.08,0,0,1,2.55,1.68Z"/></clipPath></defs><g id="Layer_2" data-name="Layer 2"><g id="Layer_1-2" data-name="Layer 1"><rect class="cls-2" width="40" height="40" rx="10.04"/><path class="cls-3" d="M34,16.85A17.09,17.09,0,0,0,16.86,33.94"/><path class="cls-3" d="M6,23.15A17.09,17.09,0,0,0,23.13,6.06"/><path class="cls-1" d="M32.28,26a2.54,2.54,0,0,0-2.06-.93c-1,0-1.95.29-1.95,1.15s1,.95,2,1.07c1.78.22,3.69.54,3.69,2.69a2.82,2.82,0,0,1-2.9,2.69v1.23H29.51V32.77a3.63,3.63,0,0,1-3.22-2.09l1.45-.61a2.67,2.67,0,0,0,2.43,1.29c1.1,0,2.11-.38,2.11-1.34,0-.8-1-1.1-2.15-1.23-1.75-.2-3.46-.5-3.46-2.53,0-1.6,1.42-2.34,2.84-2.51V22.69h1.55v1.06a3.08,3.08,0,0,1,2.55,1.68Z"/><g class="cls-4"><path class="cls-5" d="M24.42,24c0,1.52,2.63,2.75,5.86,2.75s5.87-1.23,5.87-2.75-2.63-2.76-5.87-2.76S24.42,22.5,24.42,24Z"/><path class="cls-5" d="M24.24,27.76c0,1.52,2.62,2.75,5.86,2.75S36,29.28,36,27.76,33.34,25,30.1,25,24.24,26.24,24.24,27.76Z"/></g></g></g></svg>