<svg xmlns="http://www.w3.org/2000/svg" xmlns:xlink="http://www.w3.org/1999/xlink" viewBox="0 0 152 152"><defs><style>.cls-1,.cls-5{fill:#fff;}.cls-2{fill:url(#linear-gradient);}.cls-3{fill:none;stroke:#fff;stroke-miterlimit:10;stroke-width:16.67px;}.cls-4{clip-path:url(#clip-path);}.cls-5{opacity:0.3;}</style><linearGradient id="linear-gradient" x1="76" y1="152" x2="76" gradientUnits="userSpaceOnUse"><stop offset="0" stop-color="#495197"/><stop offset="0.44" stop-color="#963883"/><stop offset="0.82" stop-color="#d42473"/><stop offset="1" stop-color="#ec1c6d"/></linearGradient><clipPath id="clip-path"><path class="cls-1" d="M122.68,98.94c-1.21-2-4.64-3.53-7.85-3.53-3.86,0-7.39,1.11-7.39,4.37,0,3.06,3.67,3.62,7.58,4.09,6.78.83,14,2,14,10.22,0,6.27-5.25,9.8-11,10.22V129h-5.91v-4.42c-5.2-.46-10-2.83-12.22-7.94l5.49-2.33c1.25,3,5.39,4.88,9.24,4.88,4.19,0,8-1.44,8-5.06,0-3.07-3.85-4.18-8.18-4.69-6.64-.75-13.15-1.91-13.15-9.62,0-6.09,5.39-8.88,10.78-9.53v-4H118v4c3.95.61,7.57,2.09,9.66,6.37Z"/></clipPath></defs><g id="Layer_2" data-name="Layer 2"><g id="Layer_1-2" data-name="Layer 1"><rect class="cls-2" width="152" height="152" rx="38.15"/><path class="cls-3" d="M129,64A64.93,64.93,0,0,0,64.07,129"/><path class="cls-3" d="M23,88A64.94,64.94,0,0,0,87.89,23"/><path class="cls-1" d="M122.68,98.94c-1.21-2-4.64-3.53-7.85-3.53-3.86,0-7.39,1.11-7.39,4.37,0,3.06,3.67,3.62,7.58,4.09,6.78.83,14,2,14,10.22,0,6.27-5.25,9.8-11,10.22V129h-5.91v-4.42c-5.2-.46-10-2.83-12.22-7.94l5.49-2.33c1.25,3,5.39,4.88,9.24,4.88,4.19,0,8-1.44,8-5.06,0-3.07-3.85-4.18-8.18-4.69-6.64-.75-13.15-1.91-13.15-9.62,0-6.09,5.39-8.88,10.78-9.53v-4H118v4c3.95.61,7.57,2.09,9.66,6.37Z"/><g class="cls-4"><path class="cls-5" d="M92.8,91.3c0,5.78,10,10.47,22.28,10.47s22.29-4.69,22.29-10.47-10-10.47-22.29-10.47S92.8,85.52,92.8,91.3Z"/><path class="cls-5" d="M92.1,105.48c0,5.78,10,10.47,22.28,10.47s22.29-4.69,22.29-10.47S126.69,95,114.38,95,92.1,99.69,92.1,105.48Z"/></g></g></g></svg>