<svg xmlns="http://www.w3.org/2000/svg" xmlns:xlink="http://www.w3.org/1999/xlink" viewBox="0 0 87 87"><defs><style>.cls-1,.cls-5{fill:#fff;}.cls-2{fill:url(#linear-gradient);}.cls-3{fill:none;stroke:#fff;stroke-miterlimit:10;stroke-width:9.54px;}.cls-4{clip-path:url(#clip-path);}.cls-5{opacity:0.3;}</style><linearGradient id="linear-gradient" x1="43.5" y1="87" x2="43.5" gradientUnits="userSpaceOnUse"><stop offset="0" stop-color="#495197"/><stop offset="0.44" stop-color="#963883"/><stop offset="0.82" stop-color="#d42473"/><stop offset="1" stop-color="#ec1c6d"/></linearGradient><clipPath id="clip-path"><path class="cls-1" d="M70.22,56.63c-.69-1.14-2.66-2-4.49-2-2.21,0-4.23.64-4.23,2.5s2.1,2.07,4.33,2.34c3.88.48,8,1.17,8,5.85,0,3.59-3,5.61-6.3,5.85v2.66H64.18V71.28c-3-.26-5.74-1.62-7-4.54l3.14-1.33c.71,1.7,3.08,2.79,5.29,2.79,2.39,0,4.6-.83,4.6-2.9,0-1.75-2.21-2.39-4.68-2.69-3.8-.42-7.53-1.09-7.53-5.5,0-3.48,3.09-5.08,6.17-5.45V49.34h3.38v2.32c2.26.34,4.34,1.19,5.53,3.64Z"/></clipPath></defs><g id="Layer_2" data-name="Layer 2"><g id="Layer_1-2" data-name="Layer 1"><rect class="cls-2" width="87" height="87" rx="21.84"/><path class="cls-3" d="M73.84,36.64A37.17,37.17,0,0,0,36.67,73.81"/><path class="cls-3" d="M13.14,50.36A37.17,37.17,0,0,0,50.3,13.19"/><path class="cls-1" d="M70.22,56.63c-.69-1.14-2.66-2-4.49-2-2.21,0-4.23.64-4.23,2.5s2.1,2.07,4.33,2.34c3.88.48,8,1.17,8,5.85,0,3.59-3,5.61-6.3,5.85v2.66H64.18V71.28c-3-.26-5.74-1.62-7-4.54l3.14-1.33c.71,1.7,3.08,2.79,5.29,2.79,2.39,0,4.6-.83,4.6-2.9,0-1.75-2.21-2.39-4.68-2.69-3.8-.42-7.53-1.09-7.53-5.5,0-3.48,3.09-5.08,6.17-5.45V49.34h3.38v2.32c2.26.34,4.34,1.19,5.53,3.64Z"/><g class="cls-4"><path class="cls-5" d="M53.11,52.26c0,3.31,5.71,6,12.76,6s12.75-2.68,12.75-6-5.71-6-12.75-6S53.11,49,53.11,52.26Z"/><path class="cls-5" d="M52.71,60.37c0,3.31,5.72,6,12.76,6s12.75-2.68,12.75-6-5.71-6-12.75-6S52.71,57.06,52.71,60.37Z"/></g></g></g></svg>