<svg xmlns="http://www.w3.org/2000/svg" xmlns:xlink="http://www.w3.org/1999/xlink" viewBox="0 0 120 120"><defs><style>.cls-1,.cls-5{fill:#fff;}.cls-2{fill:url(#linear-gradient);}.cls-3{fill:none;stroke:#fff;stroke-miterlimit:10;stroke-width:13.16px;}.cls-4{clip-path:url(#clip-path);}.cls-5{opacity:0.3;}</style><linearGradient id="linear-gradient" x1="60" y1="120" x2="60" gradientUnits="userSpaceOnUse"><stop offset="0" stop-color="#495197"/><stop offset="0.44" stop-color="#963883"/><stop offset="0.82" stop-color="#d42473"/><stop offset="1" stop-color="#ec1c6d"/></linearGradient><clipPath id="clip-path"><path class="cls-1" d="M96.85,78.11c-.95-1.58-3.66-2.79-6.19-2.79-3,0-5.84.88-5.84,3.45s2.9,2.86,6,3.23c5.36.66,11.08,1.61,11.08,8.07,0,5-4.14,7.74-8.69,8.07v3.67H88.53V98.32c-4.11-.36-7.93-2.23-9.65-6.27l4.33-1.83c1,2.34,4.25,3.85,7.3,3.85,3.3,0,6.34-1.14,6.34-4,0-2.42-3-3.3-6.45-3.71C85.15,85.78,80,84.86,80,78.77c0-4.8,4.25-7,8.51-7.52V68.06h4.66v3.19c3.11.48,6,1.65,7.63,5Z"/></clipPath></defs><g id="Layer_2" data-name="Layer 2"><g id="Layer_1-2" data-name="Layer 1"><rect class="cls-2" width="120" height="120" rx="30.12"/><path class="cls-3" d="M101.85,50.54a51.27,51.27,0,0,0-51.27,51.27"/><path class="cls-3" d="M18.12,69.46A51.27,51.27,0,0,0,69.38,18.19"/><path class="cls-1" d="M96.85,78.11c-.95-1.58-3.66-2.79-6.19-2.79-3,0-5.84.88-5.84,3.45s2.9,2.86,6,3.23c5.36.66,11.08,1.61,11.08,8.07,0,5-4.14,7.74-8.69,8.07v3.67H88.53V98.32c-4.11-.36-7.93-2.23-9.65-6.27l4.33-1.83c1,2.34,4.25,3.85,7.3,3.85,3.3,0,6.34-1.14,6.34-4,0-2.42-3-3.3-6.45-3.71C85.15,85.78,80,84.86,80,78.77c0-4.8,4.25-7,8.51-7.52V68.06h4.66v3.19c3.11.48,6,1.65,7.63,5Z"/><g class="cls-4"><path class="cls-5" d="M73.26,72.08c0,4.56,7.88,8.26,17.59,8.26s17.6-3.7,17.6-8.26-7.88-8.27-17.6-8.27S73.26,67.51,73.26,72.08Z"/><path class="cls-5" d="M72.71,83.27c0,4.57,7.88,8.27,17.59,8.27s17.6-3.7,17.6-8.27S100,75,90.3,75,72.71,78.71,72.71,83.27Z"/></g></g></g></svg>