<svg xmlns="http://www.w3.org/2000/svg" xmlns:xlink="http://www.w3.org/1999/xlink" viewBox="0 0 60 60"><defs><style>.cls-1,.cls-5{fill:#fff;}.cls-2{fill:url(#linear-gradient);}.cls-3{fill:none;stroke:#fff;stroke-miterlimit:10;stroke-width:6.58px;}.cls-4{clip-path:url(#clip-path);}.cls-5{opacity:0.3;}</style><linearGradient id="linear-gradient" x1="30" y1="60" x2="30" gradientUnits="userSpaceOnUse"><stop offset="0" stop-color="#495197"/><stop offset="0.44" stop-color="#963883"/><stop offset="0.82" stop-color="#d42473"/><stop offset="1" stop-color="#ec1c6d"/></linearGradient><clipPath id="clip-path"><path class="cls-1" d="M48.43,39.06a3.88,3.88,0,0,0-3.1-1.4c-1.52,0-2.92.44-2.92,1.73s1.45,1.43,3,1.61c2.68.33,5.54.81,5.54,4,0,2.48-2.07,3.87-4.35,4V50.9H44.26V49.16A5.45,5.45,0,0,1,39.44,46l2.16-.92A4,4,0,0,0,45.25,47c1.66,0,3.18-.56,3.18-2,0-1.21-1.52-1.65-3.23-1.85-2.62-.29-5.19-.75-5.19-3.79,0-2.41,2.13-3.51,4.25-3.76V34h2.33v1.6a4.6,4.6,0,0,1,3.82,2.51Z"/></clipPath></defs><g id="Layer_2" data-name="Layer 2"><g id="Layer_1-2" data-name="Layer 1"><rect class="cls-2" width="60" height="60" rx="15.06"/><path class="cls-3" d="M50.92,25.27A25.64,25.64,0,0,0,25.29,50.9"/><path class="cls-3" d="M9.06,34.73A25.63,25.63,0,0,0,34.69,9.1"/><path class="cls-1" d="M48.43,39.06a3.88,3.88,0,0,0-3.1-1.4c-1.52,0-2.92.44-2.92,1.73s1.45,1.43,3,1.61c2.68.33,5.54.81,5.54,4,0,2.48-2.07,3.87-4.35,4V50.9H44.26V49.16A5.45,5.45,0,0,1,39.44,46l2.16-.92A4,4,0,0,0,45.25,47c1.66,0,3.18-.56,3.18-2,0-1.21-1.52-1.65-3.23-1.85-2.62-.29-5.19-.75-5.19-3.79,0-2.41,2.13-3.51,4.25-3.76V34h2.33v1.6a4.6,4.6,0,0,1,3.82,2.51Z"/><g class="cls-4"><path class="cls-5" d="M36.63,36c0,2.28,3.94,4.13,8.8,4.13s8.79-1.85,8.79-4.13-3.93-4.13-8.79-4.13S36.63,33.76,36.63,36Z"/><path class="cls-5" d="M36.35,41.64c0,2.28,3.94,4.13,8.8,4.13S54,43.92,54,41.64,50,37.5,45.15,37.5,36.35,39.35,36.35,41.64Z"/></g></g></g></svg>