<svg xmlns="http://www.w3.org/2000/svg" xmlns:xlink="http://www.w3.org/1999/xlink" viewBox="0 0 180 180"><defs><style>.cls-1,.cls-5{fill:#fff;}.cls-2{fill:url(#linear-gradient);}.cls-3{fill:none;stroke:#fff;stroke-miterlimit:10;stroke-width:19.74px;}.cls-4{clip-path:url(#clip-path);}.cls-5{opacity:0.3;}</style><linearGradient id="linear-gradient" x1="90" y1="180" x2="90" gradientUnits="userSpaceOnUse"><stop offset="0" stop-color="#495197"/><stop offset="0.44" stop-color="#963883"/><stop offset="0.82" stop-color="#d42473"/><stop offset="1" stop-color="#ec1c6d"/></linearGradient><clipPath id="clip-path"><path class="cls-1" d="M145.28,117.17c-1.43-2.37-5.5-4.19-9.3-4.19-4.56,0-8.75,1.32-8.75,5.18,0,3.63,4.35,4.29,9,4.84,8,1,16.62,2.42,16.62,12.1,0,7.43-6.22,11.61-13,12.11v5.5h-7v-5.22c-6.16-.55-11.88-3.36-14.47-9.41l6.49-2.76c1.49,3.53,6.39,5.78,10.95,5.78,5,0,9.52-1.7,9.52-6,0-3.63-4.56-4.95-9.68-5.55-7.87-.88-15.57-2.26-15.57-11.39,0-7.21,6.38-10.51,12.76-11.28v-4.79h7v4.79c4.68.71,9,2.47,11.44,7.53Z"/></clipPath></defs><g id="Layer_2" data-name="Layer 2"><g id="Layer_1-2" data-name="Layer 1"><rect class="cls-2" width="180" height="180" rx="45.18"/><path class="cls-3" d="M152.77,75.82a76.89,76.89,0,0,0-76.9,76.89"/><path class="cls-3" d="M27.18,104.18a76.89,76.89,0,0,0,76.9-76.89"/><path class="cls-1" d="M145.28,117.17c-1.43-2.37-5.5-4.19-9.3-4.19-4.56,0-8.75,1.32-8.75,5.18,0,3.63,4.35,4.29,9,4.84,8,1,16.62,2.42,16.62,12.1,0,7.43-6.22,11.61-13,12.11v5.5h-7v-5.22c-6.16-.55-11.88-3.36-14.47-9.41l6.49-2.76c1.49,3.53,6.39,5.78,10.95,5.78,5,0,9.52-1.7,9.52-6,0-3.63-4.56-4.95-9.68-5.55-7.87-.88-15.57-2.26-15.57-11.39,0-7.21,6.38-10.51,12.76-11.28v-4.79h7v4.79c4.68.71,9,2.47,11.44,7.53Z"/><g class="cls-4"><path class="cls-5" d="M109.89,108.11c0,6.85,11.82,12.41,26.39,12.41s26.39-5.56,26.39-12.41-11.81-12.39-26.39-12.39S109.89,101.27,109.89,108.11Z"/><path class="cls-5" d="M109.06,124.91c0,6.85,11.82,12.4,26.39,12.4s26.39-5.55,26.39-12.4-11.81-12.4-26.39-12.4S109.06,118.06,109.06,124.91Z"/></g></g></g></svg>